# xmcd CD database file
#
# Track frame offsets:
#	150
#	26367
#	50190
#	69087
#	102463
#	131005
#	162679
#	184879
#	206612
#	230190
#	269601
#	293104
#
# Disc length: 4316 seconds
#
# Revision: 1
# Processed by: cddbd v1.5.2PL0 Copyright (c) Steve Scherf et al.
# Submitted via: CDex 1.51
#
DISCID=be10da0c
DTITLE=JOHNNY B. MOORE - Chicago Blues Session Volume 57-Born In Clarksdale, Mississipp
DYEAR=1998
DGENRE=Blues
TTITLE0=Elmore James Medley
TTITLE1=Back Door Man
TTITLE2=Crosscut Saw
TTITLE3=Don't Make Me Pay For His Mistakes
TTITLE4=Leanin' Tree
TTITLE5=Dangerous
TTITLE6=Help Me
TTITLE7=170 Pounds Of Joy
TTITLE8=That's All I Need
TTITLE9=Legends Of The Blues
TTITLE10=Saddle My Pony
TTITLE11=Goin' Away Baby
EXTD=YEAR: 1998
EXTT0=
EXTT1=
EXTT2=
EXTT3=
EXTT4=
EXTT5=
EXTT6=
EXTT7=
EXTT8=
EXTT9=
EXTT10=
EXTT11=
PLAYORDER=
